<?xml version="1.0" encoding="UTF-8" standalone="no"?>
<svg
   xmlns:dc="http://purl.org/dc/elements/1.1/"
   xmlns:cc="http://creativecommons.org/ns#"
   xmlns:rdf="http://www.w3.org/1999/02/22-rdf-syntax-ns#"
   xmlns:svg="http://www.w3.org/2000/svg"
   xmlns="http://www.w3.org/2000/svg"
   version="1.1"
   id="svg2"
   viewBox="0 0 28 23"
   height="23"
   width="28">
  <defs
     id="defs4" />
  <metadata
     id="metadata7">
    <rdf:RDF>
      <cc:Work
         rdf:about="">
        <dc:format>image/svg+xml</dc:format>
        <dc:type
           rdf:resource="http://purl.org/dc/dcmitype/StillImage" />
        <dc:title></dc:title>
      </cc:Work>
    </rdf:RDF>
  </metadata>
  <g
     transform="translate(-5.48238,-8.5532)"
     id="layer1">
    <g
       transform="translate(-143.44166,-343.45187)"
       id="bars-group"
       style="font-style:normal;font-variant:normal;font-weight:normal;font-stretch:normal;font-size:32.5px;line-height:125%;font-family:FontAwesome;-inkscape-font-specification:'FontAwesome, Normal';text-align:center;letter-spacing:0px;word-spacing:0px;writing-mode:lr-tb;text-anchor:middle;fill:#ffffff;fill-opacity:1;stroke:none;stroke-width:1px;stroke-linecap:butt;stroke-linejoin:miter;stroke-opacity:1">
      <path
         style="fill:#ffffff"
         id="bars"
         d="m 176.78118,371.73722 0,2.32143 q 0,0.47154 -0.34458,0.81612 -0.34459,0.34459 -0.81613,0.34459 l -25.53571,0 q -0.47154,0 -0.81613,-0.34459 -0.34459,-0.34458 -0.34459,-0.81612 l 0,-2.32143 q 0,-0.47154 0.34459,-0.81613 0.34459,-0.34459 0.81613,-0.34459 l 25.53571,0 q 0.47154,0 0.81613,0.34459 0.34458,0.34459 0.34458,0.81613 z m 0,-9.28572 0,2.32143 q 0,0.47154 -0.34458,0.81613 -0.34459,0.34459 -0.81613,0.34459 l -25.53571,0 q -0.47154,0 -0.81613,-0.34459 -0.34459,-0.34459 -0.34459,-0.81613 l 0,-2.32143 q 0,-0.47154 0.34459,-0.81612 0.34459,-0.34459 0.81613,-0.34459 l 25.53571,0 q 0.47154,0 0.81613,0.34459 0.34458,0.34458 0.34458,0.81612 z m 0,-9.28571 0,2.32143 q 0,0.47154 -0.34458,0.81612 -0.34459,0.34459 -0.81613,0.34459 l -25.53571,0 q -0.47154,0 -0.81613,-0.34459 -0.34459,-0.34458 -0.34459,-0.81612 l 0,-2.32143 q 0,-0.47154 0.34459,-0.81613 0.34459,-0.34459 0.81613,-0.34459 l 25.53571,0 q 0.47154,0 0.81613,0.34459 0.34458,0.34459 0.34458,0.81613 z" />
    </g>
  </g>
</svg>
