<?xml version="1.0" encoding="UTF-8" standalone="no"?>
<svg
   xmlns:dc="http://purl.org/dc/elements/1.1/"
   xmlns:cc="http://creativecommons.org/ns#"
   xmlns:rdf="http://www.w3.org/1999/02/22-rdf-syntax-ns#"
   xmlns:svg="http://www.w3.org/2000/svg"
   xmlns="http://www.w3.org/2000/svg"
   version="1.1"
   id="svg2"
   viewBox="0 0 112 28"
   height="28"
   width="112"
    preserveAspectRatio="xMinYMin slice">
  
    <view id="twitter-icon" viewBox="0 0 28 28" />
    <view id="facebook-icon" viewBox="28 0 28 28" />
    <view id="pinterest-icon" viewBox="56 0 28 28" />
    <view id="googleplus-icon" viewBox="84 0 28 28" />
    <g
     transform="translate(-0.71862854,-9.8979071)"
     id="layer1">
        <path
           d="m 52.051966,18.684367 q -1.020838,0.455725 -2.205734,0.619792 1.239585,-0.72917 1.69531,-2.132812 -1.184896,0.692705 -2.442703,0.929684 -1.111984,-1.203129 -2.78906,-1.203129 -1.585942,0 -2.716149,1.130217 -1.111983,1.111973 -1.111983,2.697915 0,0.528647 0.09116,0.874994 -2.351558,-0.127601 -4.411458,-1.184895 -2.05989,-1.057285 -3.499997,-2.825516 -0.528647,0.91146 -0.528647,1.932288 0,2.078123 1.658853,3.190107 -0.856771,-0.01819 -1.822911,-0.473958 l 0,0.03649 q 0,1.367185 0.911451,2.442713 0.91146,1.057284 2.24219,1.312496 -0.528647,0.145834 -0.929684,0.145834 -0.236979,0 -0.710937,-0.07287 0.382813,1.148429 1.348953,1.895832 0.984382,0.747394 2.223957,0.765627 -2.114579,1.64062 -4.757805,1.64062 -0.473959,0 -0.911461,-0.05468 2.697915,1.713543 5.869789,1.713543 2.041667,0 3.828131,-0.638025 1.786455,-0.656248 3.062496,-1.731766 1.27604,-1.09375 2.187501,-2.497392 0.929683,-1.421885 1.367185,-2.953127 0.455735,-1.549486 0.455735,-3.080728 0,-0.328125 -0.01819,-0.492192 1.14844,-0.820315 1.914066,-1.986978 z m 4.66666,-3.536463 0,17.500007 q 0,2.169268 -1.549476,3.70052 -1.531252,1.549476 -3.70052,1.549476 l -17.499998,0 q -2.169278,0 -3.718753,-1.549476 -1.531253,-1.531252 -1.531253,-3.70052 l 0,-17.500007 q 0,-2.169268 1.531253,-3.700521 1.549475,-1.5494757 3.718753,-1.5494757 l 17.499998,0 q 2.169268,0 3.70052,1.5494757 1.549476,1.531253 1.549476,3.700521 z"
           id="icon-twitter"
           style="font-style:normal;font-variant:normal;font-weight:normal;font-stretch:normal;font-size:medium;line-height:125%;font-family:FontAwesome;-inkscape-font-specification:'FontAwesome, Normal';text-align:center;letter-spacing:0px;word-spacing:0px;writing-mode:lr-tb;text-anchor:middle;fill:#ffffff;fill-opacity:1;stroke:none;stroke-width:1px;stroke-linecap:butt;stroke-linejoin:miter;stroke-opacity:1" />
        <path
           d="m 23.468622,9.8979071 q 2.169278,0 3.700531,1.5494859 1.549476,1.531242 1.549476,3.70052 l 0,17.499998 q 0,2.169267 -1.549476,3.70052 -1.531253,1.549486 -3.700531,1.549486 l -3.427075,0 0,-10.84636 3.627599,0 0.54688,-4.229167 -4.174479,0 0,-2.697916 q 0,-1.020837 0.419269,-1.531251 0.437502,-0.510415 1.677087,-0.510415 l 2.223957,-0.01819 0,-3.773433 q -1.14844,-0.164067 -3.244796,-0.164067 -2.479169,0 -3.973955,1.458331 -1.476564,1.45834 -1.476564,4.119799 l 0,3.117185 -3.645831,0 0,4.229167 3.645831,0 0,10.84636 -9.6979203,0 q -2.1692679,0 -3.7187536,-1.549486 -1.53124256,-1.531252 -1.53124256,-3.70052 l 0,-17.499997 q 0,-2.169278 1.53124256,-3.700521 1.5494857,-1.5494857 3.7187536,-1.5494857 l 17.4999973,0 z"
           style="font-style:normal;font-variant:normal;font-weight:normal;font-stretch:normal;font-size:medium;line-height:125%;font-family:FontAwesome;-inkscape-font-specification:'FontAwesome, Normal';text-align:center;letter-spacing:0px;word-spacing:0px;writing-mode:lr-tb;text-anchor:middle;fill:#ffffff;fill-opacity:1;stroke:none;stroke-width:1px;stroke-linecap:butt;stroke-linejoin:miter;stroke-opacity:1"
           id="icon-facebook" />
        <path
           d="m 79.468632,9.8979101 q 2.169268,0 3.70052,1.5494859 1.549476,1.531242 1.549476,3.70052 l 0,17.499998 q 0,2.169267 -1.549476,3.70052 -1.531252,1.549486 -3.70052,1.549486 l -13.21615,0 q 1.549476,-2.223967 1.968745,-3.828132 0.164067,-0.619792 0.966149,-3.809898 0.382814,0.710937 1.33073,1.221361 0.966148,0.510414 2.059899,0.510414 3.299474,0 5.377597,-2.679692 2.096356,-2.697915 2.096356,-6.817705 0,-1.531252 -0.638015,-2.953127 -0.638026,-1.440107 -1.768232,-2.533848 -1.111984,-1.111983 -2.770837,-1.768232 -1.658854,-0.674481 -3.591143,-0.674481 -1.895831,0 -3.554685,0.528647 -1.640631,0.510415 -2.78906,1.385419 -1.130217,0.874994 -1.950522,2.005201 -0.820315,1.111983 -1.221362,2.333335 -0.382813,1.203128 -0.382813,2.406257 0,1.859366 0.710937,3.281241 0.729171,1.421885 2.132822,2.005211 0.23698,0.09117 0.41927,0 0.200513,-0.09117 0.273435,-0.346347 0.18229,-0.802093 0.273435,-1.111984 0.109378,-0.419269 -0.200523,-0.765626 -0.911451,-1.130207 -0.911451,-2.734371 0,-2.734381 1.8776,-4.66667 1.895833,-1.950522 4.940104,-1.950522 2.716148,0 4.229168,1.476564 1.531253,1.476563 1.531253,3.828121 0,3.062506 -1.239585,5.21355 -1.221351,2.151035 -3.15365,2.151035 -1.093751,0 -1.768231,-0.783849 -0.674471,-0.802082 -0.419269,-1.895833 0.145834,-0.619792 0.473958,-1.677086 0.346356,-1.075518 0.546879,-1.859377 0.200523,-0.802083 0.200523,-1.367186 0,-0.893227 -0.492191,-1.476563 -0.473957,-0.60156 -1.367184,-0.60156 -1.111984,0 -1.895833,1.039062 -0.765627,1.020828 -0.765627,2.533848 0,1.312506 0.437503,2.205734 l -1.786465,7.546875 q -0.437502,1.822921 -0.127601,4.630214 l -3.335941,0 q -2.169267,0 -3.718753,-1.549486 -1.531243,-1.531253 -1.531243,-3.70052 l 0,-17.499998 q 0,-2.169278 1.531243,-3.70052 1.549486,-1.5494859 3.718753,-1.5494859 l 17.500007,0 z"
           style="font-style:normal;font-variant:normal;font-weight:normal;font-stretch:normal;font-size:medium;line-height:125%;font-family:FontAwesome;-inkscape-font-specification:'FontAwesome, Normal';text-align:center;letter-spacing:0px;word-spacing:0px;writing-mode:lr-tb;text-anchor:middle;fill:#ffffff;fill-opacity:1;stroke:none;stroke-width:1px;stroke-linecap:butt;stroke-linejoin:miter;stroke-opacity:1"
           id="icon-pinterest" />
        <path
           d="m 99.830611,29.767708 q 0,1.385419 -1.075527,2.05989 -1.057295,0.656259 -2.533848,0.656259 -0.747404,0 -1.476564,-0.164068 -0.710937,-0.18229 -1.367196,-0.528647 -0.656248,-0.346357 -1.057284,-0.966149 -0.401046,-0.619782 -0.401046,-1.421875 0,-0.838538 0.455735,-1.45833 0.455725,-0.619793 1.184896,-0.929684 0.747393,-0.328124 1.494786,-0.455735 0.765627,-0.145834 1.549486,-0.145834 0.36458,0 0.565103,0.03649 0.03649,0.01819 0.419269,0.309891 0.382813,0.273435 0.473958,0.346357 0.09117,0.05468 0.41927,0.328125 0.328124,0.255212 0.437502,0.401036 0.127601,0.127611 0.346347,0.401046 0.236979,0.273435 0.309901,0.473958 0.09116,0.200523 0.164057,0.492191 0.09116,0.273435 0.09116,0.565104 z m -1.348962,-9.934899 q 0,1.093751 -0.60156,1.822921 -0.601569,0.710937 -1.677086,0.710937 -0.96615,0 -1.69531,-0.765626 -0.72917,-0.783859 -1.057294,-1.768232 -0.309902,-0.984372 -0.309902,-1.932289 0,-1.111983 0.583337,-1.895832 0.583336,-0.78386 1.677086,-0.78386 0.96614,0 1.69531,0.820316 0.747393,0.820315 1.057294,1.841143 0.328125,1.020839 0.328125,1.950522 z m 1.932291,-4.684893 1.60416,-1.166672 -4.830725,0 q -1.549476,0 -2.934894,0.583336 -1.385419,0.583336 -2.333335,1.786455 -0.929683,1.203128 -0.929683,2.78907 0,1.69531 1.166662,2.825516 1.184895,1.111984 2.898438,1.111984 0.401046,0 0.78386,-0.05468 -0.23698,0.528647 -0.23698,0.984372 0,0.802082 0.729161,1.713543 -3.190107,0.218746 -4.684893,1.148439 -0.856772,0.528647 -1.385419,1.33073 -0.510414,0.802082 -0.510414,1.731766 0,0.783859 0.328124,1.421874 0.346357,0.619792 0.893227,1.020839 0.546881,0.401036 1.257818,0.674481 0.710937,0.273435 1.403642,0.382813 0.710937,0.109368 1.403651,0.109368 1.093741,0 2.187491,-0.273435 1.111984,-0.291668 2.078133,-0.838538 0.966136,-0.565104 1.567706,-1.51302 0.60156,-0.947916 0.60156,-2.132822 0,-0.893227 -0.36458,-1.622388 -0.36459,-0.747403 -0.89324,-1.221361 -0.528633,-0.473958 -1.05728,-0.856772 -0.528647,-0.401036 -0.893227,-0.802082 -0.364591,-0.419269 -0.364591,-0.820305 0,-0.401046 0.273435,-0.765626 0.291669,-0.382814 0.692715,-0.729171 0.401036,-0.346357 0.802082,-0.765626 0.401046,-0.419269 0.674486,-1.075518 0.29166,-0.674481 0.29166,-1.513019 0,-1.093751 -0.41928,-1.804688 -0.401032,-0.72917 -1.312492,-1.658854 l 1.513022,0 z m 5.30469,8.166668 2.33333,0 0,-1.166673 -2.33333,0 0,-2.333335 -1.16667,0 0,2.333335 -2.33333,0 0,1.166673 2.33333,0 0,2.916661 1.16667,0 0,-2.916661 z m 7,-8.166668 0,17.499998 q 0,2.169267 -1.54948,3.70052 -1.53125,1.549486 -3.70052,1.549486 l -17.500006,0 q -2.169268,0 -3.718743,-1.549486 -1.531253,-1.531253 -1.531253,-3.70052 l 0,-17.499998 q 0,-2.169278 1.531253,-3.70052 1.549475,-1.5494859 3.718743,-1.5494859 l 17.500006,0 q 2.16927,0 3.70052,1.5494859 1.54948,1.531242 1.54948,3.70052 z"
           style="font-style:normal;font-variant:normal;font-weight:normal;font-stretch:normal;font-size:medium;line-height:125%;font-family:FontAwesome;-inkscape-font-specification:'FontAwesome, Normal';text-align:center;letter-spacing:0px;word-spacing:0px;writing-mode:lr-tb;text-anchor:middle;fill:#ffffff;fill-opacity:1;stroke:none;stroke-width:1px;stroke-linecap:butt;stroke-linejoin:miter;stroke-opacity:1"
           id="icon-googleplus" />
    </g>
</svg>